<mxfile host="app.diagrams.net" agent="Mozilla/5.0 (Windows NT 10.0; Win64; x64) AppleWebKit/537.36 (KHTML, like Gecko) Chrome/128.0.0.0 Safari/537.36" version="24.7.17">
  <diagram name="Página-1" id="5TAty5EcfWNlwhEdt77P">
    <mxGraphModel grid="1" page="1" gridSize="10" guides="1" tooltips="1" connect="1" arrows="1" fold="1" pageScale="1" pageWidth="827" pageHeight="1169" math="0" shadow="0">
      <root>
        <mxCell id="0" />
        <mxCell id="1" parent="0" />
        <mxCell id="t5HQ9qF4xci2MWX0yWFT-1" value="0&lt;div&gt;sist venta/compra&lt;/div&gt;&lt;div&gt;autos&lt;/div&gt;" style="ellipse;whiteSpace=wrap;html=1;" vertex="1" parent="1">
          <mxGeometry x="820" y="130" width="110" height="60" as="geometry" />
        </mxCell>
        <mxCell id="t5HQ9qF4xci2MWX0yWFT-2" value="cliente" style="rounded=0;whiteSpace=wrap;html=1;" vertex="1" parent="1">
          <mxGeometry x="560" y="140" width="80" height="40" as="geometry" />
        </mxCell>
        <mxCell id="t5HQ9qF4xci2MWX0yWFT-3" value="gerente" style="rounded=0;whiteSpace=wrap;html=1;" vertex="1" parent="1">
          <mxGeometry x="835" y="10" width="80" height="40" as="geometry" />
        </mxCell>
        <mxCell id="t5HQ9qF4xci2MWX0yWFT-4" value="vendedor" style="rounded=0;whiteSpace=wrap;html=1;" vertex="1" parent="1">
          <mxGeometry x="1130" y="140" width="80" height="40" as="geometry" />
        </mxCell>
        <mxCell id="t5HQ9qF4xci2MWX0yWFT-5" value="" style="endArrow=classic;startArrow=classic;html=1;rounded=0;entryX=0;entryY=0.5;entryDx=0;entryDy=0;exitX=1;exitY=0.5;exitDx=0;exitDy=0;" edge="1" parent="1" source="t5HQ9qF4xci2MWX0yWFT-1" target="t5HQ9qF4xci2MWX0yWFT-4">
          <mxGeometry width="50" height="50" relative="1" as="geometry">
            <mxPoint x="870" y="320" as="sourcePoint" />
            <mxPoint x="920" y="270" as="targetPoint" />
          </mxGeometry>
        </mxCell>
        <mxCell id="t5HQ9qF4xci2MWX0yWFT-6" value="" style="endArrow=classic;startArrow=classic;html=1;rounded=0;entryX=0;entryY=0.5;entryDx=0;entryDy=0;exitX=1;exitY=0.5;exitDx=0;exitDy=0;" edge="1" parent="1" source="t5HQ9qF4xci2MWX0yWFT-2" target="t5HQ9qF4xci2MWX0yWFT-1">
          <mxGeometry width="50" height="50" relative="1" as="geometry">
            <mxPoint x="870" y="320" as="sourcePoint" />
            <mxPoint x="920" y="270" as="targetPoint" />
          </mxGeometry>
        </mxCell>
        <mxCell id="t5HQ9qF4xci2MWX0yWFT-7" value="" style="endArrow=classic;startArrow=classic;html=1;rounded=0;entryX=0.5;entryY=1;entryDx=0;entryDy=0;exitX=0.5;exitY=0;exitDx=0;exitDy=0;" edge="1" parent="1" source="t5HQ9qF4xci2MWX0yWFT-1" target="t5HQ9qF4xci2MWX0yWFT-3">
          <mxGeometry width="50" height="50" relative="1" as="geometry">
            <mxPoint x="870" y="320" as="sourcePoint" />
            <mxPoint x="920" y="270" as="targetPoint" />
          </mxGeometry>
        </mxCell>
        <mxCell id="dJyvpTzl4861iY1SSyHx-50" style="edgeStyle=orthogonalEdgeStyle;rounded=0;orthogonalLoop=1;jettySize=auto;html=1;entryX=0;entryY=0.5;entryDx=0;entryDy=0;" edge="1" parent="1" source="dJyvpTzl4861iY1SSyHx-1" target="dJyvpTzl4861iY1SSyHx-4">
          <mxGeometry relative="1" as="geometry" />
        </mxCell>
        <mxCell id="dJyvpTzl4861iY1SSyHx-1" value="cliente" style="rounded=0;whiteSpace=wrap;html=1;" vertex="1" parent="1">
          <mxGeometry x="560" y="493" width="80" height="40" as="geometry" />
        </mxCell>
        <mxCell id="dJyvpTzl4861iY1SSyHx-37" style="edgeStyle=orthogonalEdgeStyle;rounded=0;orthogonalLoop=1;jettySize=auto;html=1;entryX=1;entryY=0.5;entryDx=0;entryDy=0;" edge="1" parent="1" source="dJyvpTzl4861iY1SSyHx-2" target="dJyvpTzl4861iY1SSyHx-33">
          <mxGeometry relative="1" as="geometry" />
        </mxCell>
        <mxCell id="dJyvpTzl4861iY1SSyHx-2" value="gerente" style="rounded=0;whiteSpace=wrap;html=1;" vertex="1" parent="1">
          <mxGeometry x="835" y="300" width="80" height="40" as="geometry" />
        </mxCell>
        <mxCell id="dJyvpTzl4861iY1SSyHx-30" style="edgeStyle=orthogonalEdgeStyle;rounded=0;orthogonalLoop=1;jettySize=auto;html=1;entryX=0.5;entryY=1;entryDx=0;entryDy=0;" edge="1" parent="1" source="dJyvpTzl4861iY1SSyHx-3" target="dJyvpTzl4861iY1SSyHx-16">
          <mxGeometry relative="1" as="geometry" />
        </mxCell>
        <mxCell id="dJyvpTzl4861iY1SSyHx-3" value="vendedor" style="rounded=0;whiteSpace=wrap;html=1;" vertex="1" parent="1">
          <mxGeometry x="1130" y="493" width="80" height="40" as="geometry" />
        </mxCell>
        <mxCell id="dJyvpTzl4861iY1SSyHx-29" style="edgeStyle=orthogonalEdgeStyle;rounded=0;orthogonalLoop=1;jettySize=auto;html=1;entryX=0;entryY=0.5;entryDx=0;entryDy=0;" edge="1" parent="1" source="dJyvpTzl4861iY1SSyHx-4" target="dJyvpTzl4861iY1SSyHx-3">
          <mxGeometry relative="1" as="geometry" />
        </mxCell>
        <mxCell id="dJyvpTzl4861iY1SSyHx-4" value="1&lt;div&gt;comprar/vender&lt;/div&gt;" style="ellipse;whiteSpace=wrap;html=1;" vertex="1" parent="1">
          <mxGeometry x="825" y="488" width="100" height="50" as="geometry" />
        </mxCell>
        <mxCell id="dJyvpTzl4861iY1SSyHx-45" style="edgeStyle=orthogonalEdgeStyle;rounded=0;orthogonalLoop=1;jettySize=auto;html=1;entryX=1;entryY=0.5;entryDx=0;entryDy=0;" edge="1" parent="1" source="dJyvpTzl4861iY1SSyHx-16" target="dJyvpTzl4861iY1SSyHx-43">
          <mxGeometry relative="1" as="geometry" />
        </mxCell>
        <mxCell id="dJyvpTzl4861iY1SSyHx-16" value="1&lt;div&gt;Pedido&lt;/div&gt;" style="ellipse;whiteSpace=wrap;html=1;" vertex="1" parent="1">
          <mxGeometry x="1120" y="395" width="100" height="50" as="geometry" />
        </mxCell>
        <mxCell id="dJyvpTzl4861iY1SSyHx-48" style="edgeStyle=orthogonalEdgeStyle;rounded=0;orthogonalLoop=1;jettySize=auto;html=1;entryX=1;entryY=0.5;entryDx=0;entryDy=0;" edge="1" parent="1" source="dJyvpTzl4861iY1SSyHx-17" target="dJyvpTzl4861iY1SSyHx-39">
          <mxGeometry relative="1" as="geometry" />
        </mxCell>
        <mxCell id="dJyvpTzl4861iY1SSyHx-17" value="1&lt;div&gt;Realiza reporte&lt;/div&gt;&lt;div&gt;del pedido&lt;/div&gt;" style="ellipse;whiteSpace=wrap;html=1;" vertex="1" parent="1">
          <mxGeometry x="825" y="395" width="100" height="50" as="geometry" />
        </mxCell>
        <mxCell id="dJyvpTzl4861iY1SSyHx-33" value="2&lt;div&gt;Ver estadísticas&lt;/div&gt;" style="ellipse;whiteSpace=wrap;html=1;" vertex="1" parent="1">
          <mxGeometry x="670" y="295" width="100" height="50" as="geometry" />
        </mxCell>
        <mxCell id="dJyvpTzl4861iY1SSyHx-49" style="edgeStyle=orthogonalEdgeStyle;rounded=0;orthogonalLoop=1;jettySize=auto;html=1;entryX=0.5;entryY=1;entryDx=0;entryDy=0;" edge="1" parent="1" source="dJyvpTzl4861iY1SSyHx-39" target="dJyvpTzl4861iY1SSyHx-33">
          <mxGeometry relative="1" as="geometry" />
        </mxCell>
        <mxCell id="dJyvpTzl4861iY1SSyHx-39" value="&lt;span style=&quot;text-wrap: nowrap;&quot;&gt;Estadisticas&lt;/span&gt;&lt;div style=&quot;text-wrap: nowrap;&quot;&gt;de&amp;nbsp;&lt;/div&gt;&lt;div style=&quot;text-wrap: nowrap;&quot;&gt;vendedores&lt;/div&gt;" style="text;html=1;align=center;verticalAlign=middle;whiteSpace=wrap;rounded=0;" vertex="1" parent="1">
          <mxGeometry x="680" y="397.5" width="80" height="45" as="geometry" />
        </mxCell>
        <mxCell id="dJyvpTzl4861iY1SSyHx-40" value="" style="endArrow=none;html=1;rounded=0;entryX=1;entryY=0;entryDx=0;entryDy=0;exitX=0;exitY=0;exitDx=0;exitDy=0;" edge="1" parent="1" source="dJyvpTzl4861iY1SSyHx-39" target="dJyvpTzl4861iY1SSyHx-39">
          <mxGeometry width="50" height="50" relative="1" as="geometry">
            <mxPoint x="610" y="405" as="sourcePoint" />
            <mxPoint x="660" y="355" as="targetPoint" />
          </mxGeometry>
        </mxCell>
        <mxCell id="dJyvpTzl4861iY1SSyHx-41" value="" style="endArrow=none;html=1;rounded=0;exitX=0;exitY=1;exitDx=0;exitDy=0;entryX=1;entryY=1;entryDx=0;entryDy=0;" edge="1" parent="1" source="dJyvpTzl4861iY1SSyHx-39" target="dJyvpTzl4861iY1SSyHx-39">
          <mxGeometry width="50" height="50" relative="1" as="geometry">
            <mxPoint x="760" y="500" as="sourcePoint" />
            <mxPoint x="760" y="470" as="targetPoint" />
          </mxGeometry>
        </mxCell>
        <mxCell id="dJyvpTzl4861iY1SSyHx-42" value="" style="endArrow=none;html=1;rounded=0;exitX=0;exitY=0;exitDx=0;exitDy=0;entryX=1;entryY=0;entryDx=0;entryDy=0;" edge="1" parent="1" source="dJyvpTzl4861iY1SSyHx-43" target="dJyvpTzl4861iY1SSyHx-43">
          <mxGeometry width="50" height="50" relative="1" as="geometry">
            <mxPoint x="990" y="380" as="sourcePoint" />
            <mxPoint x="1040" y="330" as="targetPoint" />
          </mxGeometry>
        </mxCell>
        <mxCell id="dJyvpTzl4861iY1SSyHx-47" style="edgeStyle=orthogonalEdgeStyle;rounded=0;orthogonalLoop=1;jettySize=auto;html=1;entryX=1;entryY=0.5;entryDx=0;entryDy=0;" edge="1" parent="1" source="dJyvpTzl4861iY1SSyHx-43" target="dJyvpTzl4861iY1SSyHx-17">
          <mxGeometry relative="1" as="geometry" />
        </mxCell>
        <mxCell id="dJyvpTzl4861iY1SSyHx-43" value="Ventas" style="text;html=1;align=center;verticalAlign=middle;whiteSpace=wrap;rounded=0;" vertex="1" parent="1">
          <mxGeometry x="1000" y="405" width="60" height="30" as="geometry" />
        </mxCell>
        <mxCell id="dJyvpTzl4861iY1SSyHx-44" value="" style="endArrow=none;html=1;rounded=0;entryX=1;entryY=1;entryDx=0;entryDy=0;exitX=0;exitY=1;exitDx=0;exitDy=0;" edge="1" parent="1" source="dJyvpTzl4861iY1SSyHx-43" target="dJyvpTzl4861iY1SSyHx-43">
          <mxGeometry width="50" height="50" relative="1" as="geometry">
            <mxPoint x="1040" y="500" as="sourcePoint" />
            <mxPoint x="1090" y="450" as="targetPoint" />
          </mxGeometry>
        </mxCell>
        <mxCell id="dJyvpTzl4861iY1SSyHx-52" value="cliente" style="rounded=0;whiteSpace=wrap;html=1;" vertex="1" parent="1">
          <mxGeometry x="460" y="908" width="80" height="40" as="geometry" />
        </mxCell>
        <mxCell id="dJyvpTzl4861iY1SSyHx-53" style="edgeStyle=orthogonalEdgeStyle;rounded=0;orthogonalLoop=1;jettySize=auto;html=1;entryX=1;entryY=0.5;entryDx=0;entryDy=0;" edge="1" parent="1" source="dJyvpTzl4861iY1SSyHx-54" target="dJyvpTzl4861iY1SSyHx-63">
          <mxGeometry relative="1" as="geometry" />
        </mxCell>
        <mxCell id="dJyvpTzl4861iY1SSyHx-54" value="gerente" style="rounded=0;whiteSpace=wrap;html=1;" vertex="1" parent="1">
          <mxGeometry x="790" y="675" width="80" height="40" as="geometry" />
        </mxCell>
        <mxCell id="dJyvpTzl4861iY1SSyHx-119" style="edgeStyle=orthogonalEdgeStyle;rounded=0;orthogonalLoop=1;jettySize=auto;html=1;entryX=1;entryY=0.5;entryDx=0;entryDy=0;" edge="1" parent="1" source="dJyvpTzl4861iY1SSyHx-56" target="dJyvpTzl4861iY1SSyHx-118">
          <mxGeometry relative="1" as="geometry">
            <Array as="points">
              <mxPoint x="1180" y="795" />
            </Array>
          </mxGeometry>
        </mxCell>
        <mxCell id="dJyvpTzl4861iY1SSyHx-56" value="vendedor" style="rounded=0;whiteSpace=wrap;html=1;" vertex="1" parent="1">
          <mxGeometry x="1140" y="908" width="80" height="40" as="geometry" />
        </mxCell>
        <mxCell id="dJyvpTzl4861iY1SSyHx-61" style="edgeStyle=orthogonalEdgeStyle;rounded=0;orthogonalLoop=1;jettySize=auto;html=1;entryX=1;entryY=0.5;entryDx=0;entryDy=0;" edge="1" parent="1" source="dJyvpTzl4861iY1SSyHx-62" target="dJyvpTzl4861iY1SSyHx-65">
          <mxGeometry relative="1" as="geometry" />
        </mxCell>
        <mxCell id="dJyvpTzl4861iY1SSyHx-62" value="&lt;div&gt;1&lt;/div&gt;&lt;div&gt;Realizar reporte&lt;/div&gt;&lt;div&gt;del pedido&lt;/div&gt;" style="ellipse;whiteSpace=wrap;html=1;" vertex="1" parent="1">
          <mxGeometry x="780" y="770" width="100" height="50" as="geometry" />
        </mxCell>
        <mxCell id="dJyvpTzl4861iY1SSyHx-63" value="&lt;div&gt;1&lt;/div&gt;&lt;div&gt;Ver estadísticas&lt;/div&gt;" style="ellipse;whiteSpace=wrap;html=1;" vertex="1" parent="1">
          <mxGeometry x="572" y="670" width="100" height="50" as="geometry" />
        </mxCell>
        <mxCell id="dJyvpTzl4861iY1SSyHx-64" style="edgeStyle=orthogonalEdgeStyle;rounded=0;orthogonalLoop=1;jettySize=auto;html=1;entryX=0.5;entryY=1;entryDx=0;entryDy=0;" edge="1" parent="1" source="dJyvpTzl4861iY1SSyHx-65" target="dJyvpTzl4861iY1SSyHx-63">
          <mxGeometry relative="1" as="geometry" />
        </mxCell>
        <mxCell id="dJyvpTzl4861iY1SSyHx-65" value="&lt;span style=&quot;text-wrap: nowrap;&quot;&gt;Estadisticas&lt;/span&gt;&lt;div style=&quot;text-wrap: nowrap;&quot;&gt;de&amp;nbsp;&lt;/div&gt;&lt;div style=&quot;text-wrap: nowrap;&quot;&gt;vendedores&lt;/div&gt;" style="text;html=1;align=center;verticalAlign=middle;whiteSpace=wrap;rounded=0;" vertex="1" parent="1">
          <mxGeometry x="580" y="772.5" width="84" height="45" as="geometry" />
        </mxCell>
        <mxCell id="dJyvpTzl4861iY1SSyHx-66" value="" style="endArrow=none;html=1;rounded=0;entryX=1;entryY=0;entryDx=0;entryDy=0;exitX=0;exitY=0;exitDx=0;exitDy=0;" edge="1" parent="1" source="dJyvpTzl4861iY1SSyHx-65" target="dJyvpTzl4861iY1SSyHx-65">
          <mxGeometry width="50" height="50" relative="1" as="geometry">
            <mxPoint x="514" y="780" as="sourcePoint" />
            <mxPoint x="564" y="730" as="targetPoint" />
          </mxGeometry>
        </mxCell>
        <mxCell id="dJyvpTzl4861iY1SSyHx-67" value="" style="endArrow=none;html=1;rounded=0;exitX=0;exitY=1;exitDx=0;exitDy=0;entryX=1;entryY=1;entryDx=0;entryDy=0;" edge="1" parent="1" source="dJyvpTzl4861iY1SSyHx-65" target="dJyvpTzl4861iY1SSyHx-65">
          <mxGeometry width="50" height="50" relative="1" as="geometry">
            <mxPoint x="664" y="875" as="sourcePoint" />
            <mxPoint x="664" y="845" as="targetPoint" />
          </mxGeometry>
        </mxCell>
        <mxCell id="dJyvpTzl4861iY1SSyHx-68" value="" style="endArrow=none;html=1;rounded=0;exitX=0;exitY=0;exitDx=0;exitDy=0;entryX=1;entryY=0;entryDx=0;entryDy=0;" edge="1" parent="1" source="dJyvpTzl4861iY1SSyHx-70" target="dJyvpTzl4861iY1SSyHx-70">
          <mxGeometry width="50" height="50" relative="1" as="geometry">
            <mxPoint x="894" y="755" as="sourcePoint" />
            <mxPoint x="944" y="705" as="targetPoint" />
          </mxGeometry>
        </mxCell>
        <mxCell id="dJyvpTzl4861iY1SSyHx-114" style="edgeStyle=orthogonalEdgeStyle;rounded=0;orthogonalLoop=1;jettySize=auto;html=1;entryX=0;entryY=0.5;entryDx=0;entryDy=0;" edge="1" parent="1" source="dJyvpTzl4861iY1SSyHx-70" target="dJyvpTzl4861iY1SSyHx-56">
          <mxGeometry relative="1" as="geometry" />
        </mxCell>
        <mxCell id="dJyvpTzl4861iY1SSyHx-70" value="Ventas" style="text;html=1;align=center;verticalAlign=middle;whiteSpace=wrap;rounded=0;" vertex="1" parent="1">
          <mxGeometry x="1020" y="865" width="60" height="30" as="geometry" />
        </mxCell>
        <mxCell id="dJyvpTzl4861iY1SSyHx-71" value="" style="endArrow=none;html=1;rounded=0;entryX=1;entryY=1;entryDx=0;entryDy=0;exitX=0;exitY=1;exitDx=0;exitDy=0;" edge="1" parent="1" source="dJyvpTzl4861iY1SSyHx-70" target="dJyvpTzl4861iY1SSyHx-70">
          <mxGeometry width="50" height="50" relative="1" as="geometry">
            <mxPoint x="944" y="875" as="sourcePoint" />
            <mxPoint x="994" y="825" as="targetPoint" />
          </mxGeometry>
        </mxCell>
        <mxCell id="dJyvpTzl4861iY1SSyHx-115" style="edgeStyle=orthogonalEdgeStyle;rounded=0;orthogonalLoop=1;jettySize=auto;html=1;entryX=0;entryY=0.5;entryDx=0;entryDy=0;" edge="1" parent="1" source="dJyvpTzl4861iY1SSyHx-73" target="dJyvpTzl4861iY1SSyHx-56">
          <mxGeometry relative="1" as="geometry">
            <Array as="points">
              <mxPoint x="1110" y="980" />
              <mxPoint x="1110" y="928" />
            </Array>
          </mxGeometry>
        </mxCell>
        <mxCell id="dJyvpTzl4861iY1SSyHx-73" value="cotización&amp;nbsp;" style="text;html=1;align=center;verticalAlign=middle;whiteSpace=wrap;rounded=0;" vertex="1" parent="1">
          <mxGeometry x="1015" y="965" width="70" height="30" as="geometry" />
        </mxCell>
        <mxCell id="dJyvpTzl4861iY1SSyHx-76" value="" style="endArrow=none;html=1;rounded=0;exitX=0;exitY=0;exitDx=0;exitDy=0;entryX=1;entryY=0;entryDx=0;entryDy=0;" edge="1" parent="1" source="dJyvpTzl4861iY1SSyHx-73" target="dJyvpTzl4861iY1SSyHx-73">
          <mxGeometry width="50" height="50" relative="1" as="geometry">
            <mxPoint x="890" y="920" as="sourcePoint" />
            <mxPoint x="940" y="870" as="targetPoint" />
          </mxGeometry>
        </mxCell>
        <mxCell id="dJyvpTzl4861iY1SSyHx-77" value="" style="endArrow=none;html=1;rounded=0;exitX=0;exitY=1;exitDx=0;exitDy=0;entryX=1;entryY=1;entryDx=0;entryDy=0;" edge="1" parent="1" source="dJyvpTzl4861iY1SSyHx-73" target="dJyvpTzl4861iY1SSyHx-73">
          <mxGeometry width="50" height="50" relative="1" as="geometry">
            <mxPoint x="940" y="1010" as="sourcePoint" />
            <mxPoint x="940" y="1000" as="targetPoint" />
          </mxGeometry>
        </mxCell>
        <mxCell id="dJyvpTzl4861iY1SSyHx-78" value="2&lt;div&gt;Comprar&lt;/div&gt;" style="ellipse;whiteSpace=wrap;html=1;" vertex="1" parent="1">
          <mxGeometry x="572" y="955" width="100" height="50" as="geometry" />
        </mxCell>
        <mxCell id="dJyvpTzl4861iY1SSyHx-99" style="edgeStyle=orthogonalEdgeStyle;rounded=0;orthogonalLoop=1;jettySize=auto;html=1;entryX=0;entryY=0.5;entryDx=0;entryDy=0;" edge="1" parent="1" source="dJyvpTzl4861iY1SSyHx-79" target="dJyvpTzl4861iY1SSyHx-98">
          <mxGeometry relative="1" as="geometry" />
        </mxCell>
        <mxCell id="dJyvpTzl4861iY1SSyHx-79" value="2&lt;div&gt;Vender&lt;/div&gt;" style="ellipse;whiteSpace=wrap;html=1;" vertex="1" parent="1">
          <mxGeometry x="572" y="855" width="100" height="50" as="geometry" />
        </mxCell>
        <mxCell id="dJyvpTzl4861iY1SSyHx-81" value="" style="endArrow=none;html=1;rounded=0;exitX=1;exitY=0.5;exitDx=0;exitDy=0;" edge="1" parent="1" source="dJyvpTzl4861iY1SSyHx-52">
          <mxGeometry width="50" height="50" relative="1" as="geometry">
            <mxPoint x="493" y="928" as="sourcePoint" />
            <mxPoint x="622" y="928" as="targetPoint" />
          </mxGeometry>
        </mxCell>
        <mxCell id="dJyvpTzl4861iY1SSyHx-82" value="" style="endArrow=classic;startArrow=classic;html=1;rounded=0;exitX=0.5;exitY=0;exitDx=0;exitDy=0;entryX=0.5;entryY=1;entryDx=0;entryDy=0;" edge="1" parent="1" source="dJyvpTzl4861iY1SSyHx-78" target="dJyvpTzl4861iY1SSyHx-79">
          <mxGeometry width="50" height="50" relative="1" as="geometry">
            <mxPoint x="700" y="950" as="sourcePoint" />
            <mxPoint x="750" y="900" as="targetPoint" />
          </mxGeometry>
        </mxCell>
        <mxCell id="dJyvpTzl4861iY1SSyHx-88" value="" style="endArrow=classic;html=1;rounded=0;exitX=1;exitY=0.5;exitDx=0;exitDy=0;entryX=0;entryY=0.5;entryDx=0;entryDy=0;" edge="1" parent="1" source="dJyvpTzl4861iY1SSyHx-78" target="dJyvpTzl4861iY1SSyHx-89">
          <mxGeometry width="50" height="50" relative="1" as="geometry">
            <mxPoint x="700" y="990" as="sourcePoint" />
            <mxPoint x="750" y="940" as="targetPoint" />
          </mxGeometry>
        </mxCell>
        <mxCell id="dJyvpTzl4861iY1SSyHx-94" style="edgeStyle=orthogonalEdgeStyle;rounded=0;orthogonalLoop=1;jettySize=auto;html=1;entryX=0;entryY=0.5;entryDx=0;entryDy=0;" edge="1" parent="1" source="dJyvpTzl4861iY1SSyHx-89" target="dJyvpTzl4861iY1SSyHx-73">
          <mxGeometry relative="1" as="geometry" />
        </mxCell>
        <mxCell id="dJyvpTzl4861iY1SSyHx-89" value="2&lt;div&gt;Comprobación&lt;/div&gt;" style="ellipse;whiteSpace=wrap;html=1;" vertex="1" parent="1">
          <mxGeometry x="780" y="955" width="100" height="50" as="geometry" />
        </mxCell>
        <mxCell id="dJyvpTzl4861iY1SSyHx-102" style="edgeStyle=orthogonalEdgeStyle;rounded=0;orthogonalLoop=1;jettySize=auto;html=1;entryX=0;entryY=0.5;entryDx=0;entryDy=0;" edge="1" parent="1" source="dJyvpTzl4861iY1SSyHx-98" target="dJyvpTzl4861iY1SSyHx-70">
          <mxGeometry relative="1" as="geometry" />
        </mxCell>
        <mxCell id="dJyvpTzl4861iY1SSyHx-98" value="2&lt;div&gt;Selección de auto&lt;/div&gt;" style="ellipse;whiteSpace=wrap;html=1;" vertex="1" parent="1">
          <mxGeometry x="780" y="855" width="100" height="50" as="geometry" />
        </mxCell>
        <mxCell id="dJyvpTzl4861iY1SSyHx-120" style="edgeStyle=orthogonalEdgeStyle;rounded=0;orthogonalLoop=1;jettySize=auto;html=1;entryX=1;entryY=0.5;entryDx=0;entryDy=0;" edge="1" parent="1" source="dJyvpTzl4861iY1SSyHx-118" target="dJyvpTzl4861iY1SSyHx-62">
          <mxGeometry relative="1" as="geometry" />
        </mxCell>
        <mxCell id="dJyvpTzl4861iY1SSyHx-118" value="2&lt;div&gt;confirmar pedido&lt;/div&gt;" style="ellipse;whiteSpace=wrap;html=1;" vertex="1" parent="1">
          <mxGeometry x="1000" y="770" width="100" height="50" as="geometry" />
        </mxCell>
      </root>
    </mxGraphModel>
  </diagram>
</mxfile>
